<svg width="22" height="20" viewBox="0 0 22 20" fill="none" xmlns="http://www.w3.org/2000/svg">
<path fill-rule="evenodd" clip-rule="evenodd" d="M6.388 0.852645C2.998 2.15617 0 6.51202 0 10.1343C0 14.5396 5.408 19.9012 9.853 19.9012C18.791 19.9012 24.344 10.7213 19.12 4.58243L17.241 2.37405L13.998 7.38832L10.755 12.4026L8.378 10.277C5.201 7.43685 5.178 9.87358 8.347 13.6414L10.684 16.4197L14.038 11.0839C17.622 5.38357 19 4.95826 19 9.55388C19 13.5092 17.598 15.629 14.058 17.0239C5.371 20.4473 -2.139 10.6119 4.578 4.60812C6.589 2.80983 8.128 2.3398 11.578 2.46635C15.97 2.6281 17.448 1.60431 14.418 0.497744C12.286 -0.280562 8.954 -0.134035 6.388 0.852645Z" fill="#FF5656"/>
</svg>
